<svg xmlns="http://www.w3.org/2000/svg" width="298" height="224" fill="none"><path stroke="#AB966D" stroke-linecap="round" stroke-linejoin="round" stroke-miterlimit="10" stroke-width="1.3" d="M205.85 114.62l91.15 21.2-101.82-5.48a10.06 10.06 0 0 0-9.55 14.45l34.55 71.02-47.95-59.87a10.01 10.01 0 0 0-16.15.69l-35.32 52.7 5.57-24.8c2.22-9.88-9.87-16.48-16.94-9.25L62.69 223l25.58-53.09a10.06 10.06 0 0 0-9.03-14.44h-46.6l26.14-6.1c9.16-2.15 10.62-14.6 2.2-18.8C36.22 118.23 1.87 101.16 1 100.86l101.17 19.2c8.99 1.7 15.38-8.56 9.9-15.9L55.67 28.63l62.74 64.14c6.03 6.17 16.49 2.35 17.16-6.26L142.22 1l6.7 89.6a10.03 10.03 0 0 0 15.11 7.9l96.82-57.45-59.62 56.46a10.07 10.07 0 0 0 4.63 17.11z"/></svg>
