<svg xmlns="http://www.w3.org/2000/svg" viewBox="0 0 500 500">
  <style>
    @media (prefers-color-scheme:dark){.main{fill:#292a4f}.text{fill:#f1f2ff}}
  </style>
  <rect width="500" height="500" fill="#F1F2FF" class="main" />
  <path fill="#292A4F" d="m336.99 278.637-30.251 31.538v56.963h-51.814V141.862h51.814v105.236l99.765-105.236h57.928l-93.328 100.409 98.799 124.867h-60.824l-72.089-88.501ZM123.72 371c-17.808 0-35.08-2.36-51.814-7.08-16.52-4.935-29.822-11.264-39.906-18.988l17.7-39.262c9.655 7.08 21.133 12.766 34.435 17.057 13.302 4.29 26.604 6.436 39.906 6.436 14.804 0 25.746-2.146 32.826-6.436 7.081-4.506 10.621-10.406 10.621-17.701 0-5.363-2.146-9.762-6.437-13.195-4.076-3.647-9.44-6.543-16.091-8.689-6.437-2.145-15.233-4.505-26.39-7.08-17.163-4.076-31.216-8.153-42.158-12.229-10.942-4.077-20.383-10.62-28.32-19.631-7.725-9.011-11.587-21.026-11.587-36.045 0-13.087 3.54-24.887 10.62-35.4 7.08-10.728 17.701-19.202 31.861-25.424 14.375-6.222 31.861-9.333 52.457-9.333 14.375 0 28.428 1.716 42.159 5.149 13.731 3.433 25.746 8.368 36.044 14.804l-16.091 39.584c-20.811-11.8-41.622-17.7-62.433-17.7-14.59 0-25.424 2.36-32.505 7.08-6.865 4.72-10.298 10.942-10.298 18.666s3.97 13.516 11.908 17.378c8.152 3.648 20.489 7.295 37.009 10.942 17.164 4.077 31.217 8.153 42.159 12.23 10.942 4.076 20.275 10.512 27.999 19.309 7.938 8.796 11.907 20.704 11.907 35.722 0 12.873-3.647 24.673-10.942 35.401-7.08 10.513-17.807 18.88-32.182 25.102-14.375 6.222-31.861 9.333-52.457 9.333Z" class="text"/>
</svg>
